<mxfile host="app.diagrams.net" modified="2023-12-14T09:40:35.667Z" agent="Mozilla/5.0 (Macintosh; Intel Mac OS X 10_15_7) AppleWebKit/537.36 (KHTML, like Gecko) Chrome/119.0.0.0 Safari/537.36" version="22.1.8" etag="l9xcQo-yvuyvoe44G-f8" type="github">
  <diagram name="페이지-1" id="QqkIToWBPyd53limGngY">
    <mxGraphModel>
      <root>
        <mxCell id="0" />
        <mxCell id="1" parent="0" />
      </root>
    </mxGraphModel>
  </diagram>
</mxfile>
